<?xml version="1.0" encoding="UTF-8" standalone="no"?>
<svg
   xmlns:dc="http://purl.org/dc/elements/1.1/"
   xmlns:cc="http://creativecommons.org/ns#"
   xmlns:rdf="http://www.w3.org/1999/02/22-rdf-syntax-ns#"
   xmlns:svg="http://www.w3.org/2000/svg"
   xmlns="http://www.w3.org/2000/svg"
   xmlns:sodipodi="http://sodipodi.sourceforge.net/DTD/sodipodi-0.dtd"
   xmlns:inkscape="http://www.inkscape.org/namespaces/inkscape"
   version="1.1"
   id="Capa_1"
   x="0px"
   y="0px"
   width="30px"
   height="30px"
   viewBox="0 0 418.879 418.879"
   style="enable-background:new 0 0 418.879 418.879;"
   xml:space="preserve"
   sodipodi:docname="logo.svg"
   inkscape:version="1.0.1 (1.0.1+r74)"><metadata
   id="metadata959"><rdf:RDF><cc:Work
       rdf:about=""><dc:format>image/svg+xml</dc:format><dc:type
         rdf:resource="http://purl.org/dc/dcmitype/StillImage" /><dc:title></dc:title></cc:Work></rdf:RDF></metadata><defs
   id="defs957" /><sodipodi:namedview
   pagecolor="#ffffff"
   bordercolor="#666666"
   borderopacity="1"
   objecttolerance="10"
   gridtolerance="10"
   guidetolerance="10"
   inkscape:pageopacity="0"
   inkscape:pageshadow="2"
   inkscape:window-width="40"
   inkscape:window-height="40"
   id="namedview955"
   showgrid="false"
   inkscape:zoom="1.2246974"
   inkscape:cx="209.4395"
   inkscape:cy="209.4395"
   inkscape:window-x="58"
   inkscape:window-y="27"
   inkscape:window-maximized="1"
   inkscape:current-layer="Capa_1" />
<g
   id="g922">
	<g
   id="g920">
		<path
   d="M188.634,234.066c8.462-5.287,16.126-11.735,22.767-19.127l23.942,13.826l21.8-37.76l-23.894-13.796    c3.038-9.275,4.825-19.113,5.16-29.311l27.183-4.793l-7.574-42.938l-27.178,4.793c-3.756-9.309-8.795-17.965-14.906-25.744    l17.766-21.17L200.3,30.022l-17.751,21.152c-8.67-4.646-18.059-8.119-27.954-10.203V13.385h-43.6v27.586    c-9.896,2.084-19.285,5.557-27.956,10.203l-17.75-21.152l-33.4,28.025l17.764,21.17c-6.11,7.779-11.149,16.436-14.905,25.744    L7.57,100.168L0,143.106l27.179,4.793c0.335,10.199,2.123,20.035,5.161,29.313L8.444,191.007l21.801,37.759l23.943-13.822    c6.639,7.389,14.303,13.838,22.766,19.125l-9.451,25.963l40.972,14.91l9.438-25.928c4.864,0.688,9.831,1.053,14.882,1.053    c5.051,0,10.019-0.363,14.883-1.053l9.437,25.93l40.97-14.914L188.634,234.066z M132.793,200.065    c-30.702,0-55.68-24.977-55.68-55.68c0-30.701,24.978-55.68,55.68-55.68s55.68,24.979,55.68,55.68    C188.473,175.088,163.496,200.065,132.793,200.065z"
   id="path914" />
		<path
   d="M376.041,266.807l-18.795,6.08c-3.584-6.229-8.014-11.869-13.115-16.779l10.504-16.764l-26.447-16.57l-10.498,16.75    c-6.604-2.438-13.602-3.973-20.826-4.471l-2.725-19.559l-30.912,4.309l2.725,19.559c-6.809,2.453-13.125,5.847-18.812,9.996    l-14.672-13.244l-20.912,23.168l14.684,13.259c-3.562,6.118-6.277,12.752-8.02,19.726l-19.744-0.714l-1.129,31.188l19.743,0.716    c1.246,7.198,3.486,13.991,6.558,20.271l-15.578,12.143l19.185,24.615l15.609-12.164c5.438,4.582,11.511,8.396,18.031,11.311    l-4.138,19.344l30.522,6.52l4.133-19.314c3.516,0.01,7.072-0.229,10.652-0.727c3.582-0.498,7.07-1.25,10.447-2.215l9.256,17.451    l27.574-14.623l-9.266-17.471c5.48-4.586,10.271-9.918,14.252-15.812l18.338,7.436l11.727-28.924l-18.303-7.422    c1.234-6.875,1.529-14.027,0.764-21.293l18.799-6.084L376.041,266.807z M297.129,350.006    c-21.771,3.031-41.949-12.209-44.98-33.977c-3.037-21.769,12.207-41.949,33.977-44.979c21.768-3.036,41.941,12.207,44.98,33.978    C334.135,326.795,318.896,346.969,297.129,350.006z"
   id="path916" />
		<path
   d="M418.146,158.647l0.732-24.629l-15.586-0.463c-0.977-5.428-2.723-10.803-5.285-15.971l12.24-9.67l-15.271-19.33    l-12.238,9.666c-4.365-3.627-9.193-6.584-14.318-8.816l3.164-15.291l-24.123-4.996l-3.17,15.281    c-5.559,0.008-11.156,0.797-16.641,2.412l-7.391-13.727l-21.695,11.684l7.391,13.729c-4.363,3.686-8.107,7.934-11.176,12.566    l-14.496-5.77l-9.111,22.893l14.508,5.779c-0.955,5.508-1.141,11.158-0.514,16.799l-14.809,4.898l7.732,23.395l14.809-4.896    c2.9,4.986,6.426,9.396,10.426,13.201l-8.191,13.268l20.963,12.946l8.209-13.292c5.285,1.896,10.828,3.051,16.453,3.414    l2.252,15.453l24.383-3.561l-2.246-15.434c2.602-0.957,5.17-2.109,7.684-3.463c2.516-1.352,4.891-2.867,7.123-4.51l11.648,10.371    l16.387-18.398l-11.656-10.383c2.795-4.9,4.875-10.164,6.203-15.619L418.146,158.647z M359.436,171.844    c-15.281,8.227-34.404,2.492-42.627-12.783c-8.23-15.277-2.494-34.404,12.787-42.627c15.273-8.229,34.395-2.49,42.625,12.787    C380.443,144.499,374.711,163.616,359.436,171.844z"
   id="path918" />
	</g>
</g>
<g
   id="g924">
</g>
<g
   id="g926">
</g>
<g
   id="g928">
</g>
<g
   id="g930">
</g>
<g
   id="g932">
</g>
<g
   id="g934">
</g>
<g
   id="g936">
</g>
<g
   id="g938">
</g>
<g
   id="g940">
</g>
<g
   id="g942">
</g>
<g
   id="g944">
</g>
<g
   id="g946">
</g>
<g
   id="g948">
</g>
<g
   id="g950">
</g>
<g
   id="g952">
</g>
<path
   style="fill:#ffffff;stroke-width:3.08609;fill-opacity:1;stroke:#ffffff;stroke-opacity:1"
   d="m 87.992637,267.13766 c -10.65946,-3.89037 -19.386106,-7.46686 -19.392548,-7.94775 -0.0065,-0.48088 1.9978,-6.35291 4.453874,-13.04894 2.456074,-6.69603 4.201404,-12.39352 3.878509,-12.66108 -0.322894,-0.26757 -2.975425,-2.15811 -5.894513,-4.20121 -2.919089,-2.0431 -7.97891,-6.18996 -11.244048,-9.21523 l -5.936615,-5.50051 -11.544425,6.65771 c -6.349434,3.66175 -11.823038,6.36707 -12.163565,6.01183 -0.340527,-0.35524 -5.211476,-8.61642 -10.824333,-18.35819 L 9.1197788,191.162 19.869795,184.98404 c 5.912508,-3.39788 11.229485,-6.48463 11.815504,-6.85945 0.861099,-0.55075 0.75326,-1.87354 -0.562166,-6.89569 -1.46202,-5.58183 -2.989337,-14.75357 -3.559971,-21.37808 l -0.209465,-2.4317 -12.975488,-2.24242 c -7.1365179,-1.23333 -13.15436,-2.42128 -13.3729822,-2.63991 -0.3359519,-0.33595 5.9091581,-38.29032 6.7418725,-40.97342 0.2543943,-0.81968 6.5203337,0.0543 24.5465687,3.42374 2.431794,0.45455 2.572265,0.30027 5.97043,-6.557519 1.914023,-3.862661 5.140098,-9.44778 7.169056,-12.411376 2.028957,-2.963596 3.861424,-5.837652 4.072148,-6.38679 0.210724,-0.549139 -1.931398,-3.731271 -4.760273,-7.071404 -2.828875,-3.340133 -6.714563,-7.95905 -8.634863,-10.264261 L 32.618711,58.104469 48.766354,44.572821 c 8.881203,-7.442406 16.331362,-13.513376 16.555907,-13.491045 0.224545,0.02233 3.898922,4.265017 8.165282,9.428191 4.266361,5.163172 8.147728,9.722994 8.625266,10.132935 0.546756,0.469371 3.695403,-0.473509 8.50375,-2.5465 4.199527,-1.810516 10.514561,-4.062419 14.033391,-5.004227 l 6.39789,-1.712379 V 27.630389 13.88098 h 21.638 21.638 l 0.007,13.676849 0.007,13.676848 6.73017,1.872269 c 3.70159,1.029749 9.66967,3.172901 13.2624,4.762561 3.59272,1.589661 7.08338,3.032332 7.75702,3.205937 0.774,0.199471 4.33111,-3.451084 9.66473,-9.91863 7.71469,-9.354833 8.57257,-10.142034 9.9834,-9.160847 2.90358,2.019331 30.87668,25.56837 30.9267,26.035511 0.0274,0.256429 -2.56947,3.563368 -5.77095,7.348754 -3.20147,3.785386 -7.08571,8.422001 -8.63162,10.30359 l -2.81074,3.421069 4.03222,5.975491 c 2.21772,3.28652 5.59351,9.095793 7.50174,12.909493 1.90823,3.813705 3.56959,7.046175 3.6919,7.183255 0.12232,0.1371 6.23418,-0.83105 13.58193,-2.15144 7.34775,-1.32039 13.39239,-2.35115 13.43252,-2.29057 0.62535,0.94375 7.19135,41.82813 6.74729,42.01322 -0.3433,0.14308 -6.42755,1.26765 -13.52056,2.49902 l -12.89707,2.23887 -0.60128,7.17155 c -0.3307,3.94434 -1.4967,10.71725 -2.59111,15.05089 -1.09441,4.33364 -1.92615,7.92475 -1.84831,7.98024 0.0778,0.0555 5.10194,2.93305 11.16466,6.39457 6.06272,3.46151 11.27785,6.54179 11.58917,6.84504 0.51451,0.50117 -18.45509,34.28105 -20.27053,36.0965 -0.4882,0.48819 -4.94277,-1.63691 -12.05263,-5.74984 -6.20302,-3.58834 -11.46309,-6.52425 -11.68905,-6.52425 -0.22595,0 -3.20126,2.60597 -6.6118,5.79103 -3.41054,3.18507 -8.51581,7.44285 -11.34504,9.46175 -2.82922,2.01889 -5.14404,4.06293 -5.14404,4.54232 0,0.47937 1.81543,5.86683 4.03428,11.97211 2.21886,6.10529 4.14791,11.59382 4.28678,12.19674 0.17369,0.7541 -5.86329,3.33669 -19.34419,8.27536 -10.77818,3.94853 -19.78848,7.06785 -20.0229,6.93182 -0.23442,-0.13604 -2.41835,-5.71729 -4.85316,-12.40279 l -4.42695,-12.15545 -15.50129,0.0447 -15.5013,0.0447 -4.52356,12.45206 c -2.48797,6.84863 -4.71904,12.42001 -4.95793,12.38084 -0.23889,-0.0392 -9.155715,-3.25424 -19.815173,-7.14462 z m 59.301323,-68.69843 c 9.92417,-2.53818 17.02593,-6.70831 25.02938,-14.6972 5.61919,-5.60896 7.6306,-8.31386 10.33939,-13.90415 4.35844,-8.9948 5.9553,-15.81577 5.9553,-25.43807 0,-44.23272 -48.05311,-70.805046 -85.73547,-47.409856 -15.214223,9.445796 -24.988089,26.312636 -25.889497,44.677696 -0.520764,10.60992 1.062048,18.17056 5.811942,27.76196 7.309063,14.75912 20.691435,25.5773 36.339835,29.37677 7.07198,1.7171 20.6945,1.53942 28.14912,-0.36715 z"
   id="path961" /><path
   style="fill:#ffffff;stroke-width:3.08609;stroke:#ffffff;stroke-opacity:1;fill-opacity:1"
   d="m 271.49565,401.75006 c -10.06577,-2.20591 -13.85867,-3.35584 -13.7998,-4.18381 0.0446,-0.62797 0.89618,-4.94446 1.89229,-9.59219 0.9961,-4.64772 1.69445,-8.55251 1.55187,-8.67731 -0.14258,-0.12479 -1.9127,-1.0517 -3.93361,-2.05979 -2.02091,-1.00809 -5.98977,-3.47366 -8.81969,-5.47904 -2.82993,-2.00538 -5.58571,-3.46858 -6.12396,-3.25155 -0.53826,0.21703 -4.07687,2.82778 -7.86358,5.80167 -3.78671,2.97389 -7.15378,5.12486 -7.48238,4.77994 -1.55562,-1.63289 -17.86271,-22.72345 -17.8466,-23.08166 0.0101,-0.22454 3.31241,-2.93543 7.33846,-6.02417 4.02605,-3.08876 7.32009,-5.9437 7.32009,-6.34432 0,-0.40063 -0.91591,-2.98248 -2.03535,-5.73744 -1.11944,-2.75498 -2.47127,-7.11952 -3.00405,-9.69901 -0.93,-4.50263 -1.08517,-4.70924 -3.88448,-5.17236 -1.60368,-0.26531 -6.08993,-0.48643 -9.96945,-0.49137 l -7.05367,-0.009 0.38041,-14.08511 c 0.20923,-7.74681 0.52421,-14.54441 0.69996,-15.10577 0.2323,-0.74203 2.9928,-1.02066 10.11203,-1.02066 h 9.79249 l 0.92038,-3.47025 c 0.5062,-1.90863 2.29632,-6.42179 3.97803,-10.02925 l 3.05766,-6.559 -7.16988,-6.42565 -7.16987,-6.42565 2.61091,-3.02299 c 1.43601,-1.66265 5.91786,-6.71001 9.95968,-11.21636 l 7.34875,-8.19337 3.01509,2.56302 c 1.65829,1.40965 5.02201,4.323 7.47492,6.4741 l 4.45984,3.91109 4.99332,-3.22733 c 2.74632,-1.77504 7.00694,-4.06194 9.46803,-5.08201 5.05975,-2.09715 4.86252,-1.33601 3.25717,-12.5696 -0.64117,-4.48668 -0.9051,-8.38987 -0.5865,-8.67376 0.68653,-0.61176 28.65816,-4.35811 29.10393,-3.89801 0.16847,0.17389 0.90217,4.34225 1.63045,9.26304 0.72828,4.92079 1.72691,9.19581 2.21918,9.50005 0.49227,0.30424 2.97327,0.78829 5.51332,1.07566 2.54007,0.28738 6.97719,1.23672 9.86029,2.10965 2.8831,0.87293 5.30817,1.50691 5.38905,1.40885 0.0808,-0.0981 2.25093,-3.57908 4.82234,-7.73559 2.57141,-4.15651 4.94625,-7.72475 5.27743,-7.92943 0.55426,-0.34255 23.03441,13.24619 24.74755,14.95932 0.46005,0.46006 -1.18195,3.82511 -4.218,8.6442 -2.73422,4.33999 -4.9713,8.16455 -4.9713,8.49901 0,0.33447 1.48467,2.05785 3.29925,3.82976 1.8146,1.7719 4.78261,5.49837 6.5956,8.28105 1.81299,2.78267 3.72712,4.92711 4.25363,4.76541 0.52651,-0.16171 4.5722,-1.46636 8.99043,-2.89923 4.41822,-1.43287 8.32139,-2.28854 8.67371,-1.9015 0.3523,0.38704 2.65898,6.7946 5.12593,14.23901 l 4.48537,13.5353 -9.28056,3.05446 -9.28057,3.05445 -0.1531,8.92676 c -0.0842,4.90971 -0.17607,9.91675 -0.20413,11.12674 -0.0474,2.04196 0.56488,2.44769 8.52251,5.64768 6.10113,2.45344 8.50789,3.80509 8.34588,4.68711 -0.34053,1.85387 -10.02527,25.32713 -10.77455,26.11467 -0.35629,0.37448 -4.2391,-0.81969 -8.62845,-2.65372 -4.38936,-1.83403 -8.43022,-3.3346 -8.97971,-3.3346 -0.5495,0 -2.03601,1.37789 -3.30337,3.06198 -1.26736,1.68409 -4.43465,5.2983 -7.03843,8.03157 l -4.73414,4.96959 4.43281,8.46632 4.43281,8.46632 -2.18633,1.3102 c -1.20248,0.7206 -7.18472,3.9401 -13.29388,7.15444 l -11.10755,5.84425 -4.24431,-8.11603 c -2.33436,-4.46383 -4.54346,-8.30093 -4.90908,-8.52689 -0.36563,-0.22598 -3.19438,0.12506 -6.28614,0.78008 -3.09175,0.65502 -7.84207,1.19733 -10.55626,1.20512 l -4.93489,0.0142 -1.96988,9.79834 c -1.08343,5.38908 -2.35339,9.752 -2.82212,9.69536 -0.46874,-0.0566 -7.09869,-1.47187 -14.73323,-3.14498 z m 31.51187,-52.67788 c 12.69329,-3.61087 23.08797,-13.90787 26.98215,-26.72862 1.43547,-4.72596 1.66392,-7.12575 1.3501,-14.182 -0.3532,-7.94144 -0.59548,-8.93134 -3.72787,-15.23093 -5.58657,-11.23523 -15.17843,-18.89322 -26.94251,-21.51048 -24.47636,-5.44547 -47.50256,11.67587 -48.96853,36.411 -1.66998,28.17734 24.1817,48.9573 51.30666,41.24103 z"
   id="path963" /><path
   style="fill:#ffffff;stroke-width:3.08609;stroke:#ffffff;stroke-opacity:1"
   d="m 342.94187,217.29475 c 0,-0.91552 -0.39854,-4.34352 -0.88565,-7.61776 l -0.88566,-5.95319 -7.07549,-1.48344 c -3.89153,-0.81589 -7.81038,-1.66602 -8.70856,-1.88919 -1.32778,-0.32989 -2.31587,0.74876 -5.28577,5.77022 -2.00899,3.39677 -3.97939,6.17596 -4.37868,6.17596 -0.39928,0 -5.05124,-2.64724 -10.33768,-5.88274 l -9.61172,-5.88273 3.9697,-6.40048 3.96971,-6.40049 -4.79445,-6.03332 c -2.63695,-3.31832 -4.95699,-6.51752 -5.15564,-7.10932 -0.27977,-0.8335 -1.97473,-0.55227 -7.52023,1.24776 -3.93748,1.27807 -7.44116,2.01295 -7.78595,1.63306 -1.02438,-1.12868 -7.38665,-20.94908 -6.88702,-21.45517 0.25264,-0.2559 3.42697,-1.38412 7.05405,-2.50713 l 6.59469,-2.04184 0.22462,-8.99476 0.22462,-8.99475 -6.93343,-2.7324 c -4.09254,-1.61283 -6.77693,-3.11284 -6.5515,-3.66091 0.21005,-0.51068 2.11159,-5.33777 4.22564,-10.72685 2.11405,-5.38909 3.94747,-9.91242 4.07428,-10.05185 0.1268,-0.13943 3.11721,0.86933 6.64535,2.24169 3.52815,1.37237 6.8305,2.4969 7.33856,2.49896 0.50806,0.002 1.83579,-1.19041 2.95052,-2.64995 1.11472,-1.45955 3.63124,-4.25667 5.59226,-6.21582 l 3.5655,-3.562107 -3.49587,-6.450655 c -1.92272,-3.547861 -3.28914,-6.785129 -3.03649,-7.193931 0.52187,-0.844406 18.73613,-10.669158 19.77112,-10.664525 0.37105,0.0017 1.88148,2.337093 3.3565,5.189849 4.24145,8.203166 3.81537,7.921354 9.97433,6.597151 2.91909,-0.627616 6.66057,-1.148777 8.31439,-1.158136 3.35216,-0.01897 3.08224,0.460743 5.12159,-9.102031 l 1.32801,-6.227165 11.15465,2.377327 c 6.13506,1.30753 11.32657,2.549244 11.53669,2.759363 0.21011,0.21012 -0.23146,3.236974 -0.98129,6.726342 -1.77428,8.256713 -1.79703,8.086567 1.29039,9.651351 1.45955,0.739735 4.78033,2.782366 7.37952,4.539181 l 4.72582,3.19421 5.90926,-4.828634 5.90926,-4.828634 6.77351,8.558404 c 3.72544,4.70712 6.94815,9.01347 7.16158,9.56967 0.21524,0.56091 -2.17389,2.95896 -5.3648,5.3848 -3.16406,2.40546 -5.75285,4.54827 -5.75285,4.76181 0,0.21354 0.88887,2.62171 1.97526,5.35149 1.0864,2.72978 2.2296,6.34112 2.54046,8.02521 l 0.5652,3.06198 5.82895,0.0112 c 10.16376,0.0194 9.50334,-0.87204 9.50334,12.82835 v 11.83251 l -8.04729,-0.57598 -8.04729,-0.57597 -0.53931,2.69654 c -0.29662,1.4831 -1.69566,5.20528 -3.10898,8.27153 l -2.56968,5.57497 4.74558,4.26017 c 2.61007,2.34309 5.25588,4.56174 5.87958,4.93034 1.15838,0.68458 -0.44989,2.79252 -10.90109,14.28791 l -3.94869,4.34321 -5.55059,-4.95561 c -3.05283,-2.72559 -5.67224,-4.95561 -5.82091,-4.95561 -0.14867,0 -2.4127,1.29008 -5.03117,2.86685 -2.61848,1.57676 -6.01014,3.31858 -7.53702,3.87071 -3.06383,1.10789 -3.00406,0.51273 -1.29694,12.91281 l 0.51325,3.72806 -9.68457,1.40613 c -5.32652,0.77337 -10.69503,1.60514 -11.93003,1.84838 -1.8599,0.36631 -2.24545,0.15643 -2.24545,-1.22233 z m 8.11535,-42.13232 c 8.80812,-1.2005 19.48068,-10.01733 23.00404,-19.00413 1.42468,-3.63384 1.83967,-6.34999 1.83967,-12.04106 0,-5.69107 -0.41499,-8.40722 -1.83967,-12.04107 -2.56222,-6.53528 -8.65903,-12.97193 -15.45226,-16.3136 -5.14457,-2.53067 -5.91497,-2.67319 -14.42944,-2.6694 -8.49347,0.004 -9.26846,0.14696 -13.90715,2.56913 -6.05016,3.15919 -12.04922,9.43383 -14.93465,15.62069 -1.89898,4.07175 -2.17889,5.71339 -2.18834,12.83425 -0.01,7.17511 0.25611,8.73489 2.19044,12.86247 2.87677,6.13865 9.29486,12.84169 14.94454,15.60806 4.3601,2.13494 12.14679,3.79383 15.51532,3.30542 0.89818,-0.13022 3.26406,-0.45907 5.2575,-0.73076 z"
   id="path965" /></svg>
